# Blender 5.0.1
# www.blender.org
mtllib Cofre3.mtl
g Cofre_Mesh
v 9.775936 -2.637623 21.929829
v 9.776218 -3.307644 24.277264
v 9.775841 -2.414288 21.147369
v -7.475585 -1.390499 14.367817
v -7.475894 -1.277615 13.631668
v -7.583530 -0.950993 13.626312
v -7.583217 -1.083210 14.488510
v 9.670038 -1.277615 13.632130
v 9.669693 -1.390499 14.368282
v 9.777317 -1.083210 14.488983
v 9.777676 -0.950993 13.626785
v 9.669342 -1.524647 15.243114
v -7.475288 -1.524647 15.242657
v -7.475593 -1.411770 14.506504
v -7.582908 -1.215420 15.350712
v -7.474979 -1.656857 16.104851
v -7.475288 -1.543972 15.368694
v -7.582603 -1.347630 16.212902
v 9.669336 -1.543972 15.369156
v 9.668997 -1.656857 16.105320
v 9.776608 -1.347630 16.213367
v 9.668989 -1.676182 16.231346
v 9.668646 -1.789074 16.967518
v 9.776264 -1.479839 17.075581
v -7.474670 -1.789074 16.967060
v -7.474979 -1.676182 16.230885
v -7.582286 -1.479839 17.075104
v -7.474365 -1.921284 17.829258
v -7.474670 -1.808399 17.093098
v -7.581989 -1.612049 17.937305
v 9.668646 -1.808399 17.093555
v 9.668301 -1.921284 17.829716
v 9.775906 -1.612049 17.937778
v 9.667942 -2.071461 18.775440
v 9.668037 -2.262157 19.443520
v 9.775648 -1.967602 19.582432
v 9.775555 -1.744267 18.799969
v -7.474193 -2.262157 19.443054
v -7.474063 -2.071461 18.774982
v -7.581668 -1.744267 18.799496
v -7.581813 -1.967602 19.581966
v 9.668293 -1.940609 17.955757
v 9.667942 -2.053493 18.691906
v -7.474063 -2.053493 18.691448
v -7.474372 -1.940609 17.955299
v -7.474319 -2.485493 20.225529
v -7.474193 -2.294804 19.557438
v -7.581943 -2.190945 20.364437
v 9.668037 -2.294804 19.557896
v 9.668137 -2.485493 20.225990
v 9.775742 -2.190945 20.364906
v 9.668131 -2.518147 20.340382
v 9.668232 -2.708836 21.008476
v 9.668224 -2.741482 21.122852
v 9.668320 -2.932178 21.790932
v 9.668320 -2.964825 21.905323
v 9.668419 -3.155514 22.573406
v 9.776031 -2.860966 22.712307
v -7.474727 -3.155514 22.572945
v -7.582214 -2.637623 21.929371
v -7.582344 -2.860966 22.711834
v -7.474868 -3.378864 23.355408
v -7.474727 -3.188168 22.687336
v -7.582485 -3.084309 23.494320
v 9.668419 -3.188168 22.687798
v 9.668514 -3.378864 23.355869
v 9.776131 -3.084309 23.494793
v 9.668610 -3.602200 24.138336
v -7.475135 -3.825542 24.920353
v -7.474998 -3.634846 24.252277
v -7.582626 -3.307644 24.276794
v -7.582759 -3.530987 25.059269
v 9.668602 -3.634846 24.252735
v 9.668701 -3.825542 24.920811
v 9.776320 -3.530987 25.059742
v 9.668695 -3.858189 25.035191
v 9.668789 -4.048878 25.703274
v 9.776413 -3.754330 25.842182
v -7.475269 -4.048878 25.702831
v -7.475143 -3.858189 25.034733
v -7.582889 -3.754330 25.841709
v -7.475399 -4.272221 26.485287
v -7.475273 -4.081532 25.817204
v -7.583030 -3.977673 26.624184
v 9.668789 -4.081532 25.817661
v 9.668890 -4.272221 26.485748
v 9.776514 -3.977673 26.624657
v 9.668890 -4.304874 26.600147
v 9.668983 -4.495564 27.268223
v 9.776608 -4.201008 27.407139
v -7.475540 -4.495564 27.267765
v -7.475399 -4.304874 26.599682
v -7.583168 -4.201008 27.406673
v -7.475669 -4.722164 28.061687
v -7.475540 -4.531483 27.393612
v -7.583301 -4.424351 28.189144
v 9.668983 -4.531483 27.394070
v 9.669079 -4.722164 28.062145
v 9.776707 -4.424351 28.189617
v 1.097077 -1.277432 13.631119
v -7.474327 -2.518147 20.339924
v -7.474456 -2.708836 21.008015
v -7.474868 -3.411503 23.469814
v -7.474998 -3.602200 24.137875
v -8.341717 -0.764797 12.845589
v 1.097096 -0.764797 12.845840
v 1.097096 -1.035656 12.786366
v -8.341717 -1.035656 12.786106
v 10.535908 -1.035656 12.786621
v 1.096707 -4.722225 28.062160
v -7.474472 -2.741482 21.122395
v -7.474590 -2.932178 21.790466
v -7.582080 -2.414288 21.146900
v 1.096699 -4.424419 28.189655
v -9.999672 -2.035679 16.881275
v -9.531410 -2.095242 17.243366
v -9.063137 -2.095242 17.243382
v -8.594860 -2.035679 16.881313
v -8.594795 -1.651875 14.548309
v -9.063061 -1.592320 14.186245
v -9.531334 -1.592320 14.186234
v -9.999611 -1.651875 14.548267
v 11.257172 -1.592320 14.186798
v 10.788895 -1.651875 14.548832
v 10.788832 -2.035679 16.881832
v 11.257097 -2.095242 17.243931
v 11.725368 -2.095242 17.243946
v 12.193645 -2.035679 16.881878
v 12.193710 -1.651875 14.548870
v 11.725445 -1.592320 14.186810
v 12.193645 -1.717289 16.930103
v 11.725368 -1.776852 17.292171
v -8.594860 -1.717289 16.929539
v -9.063137 -1.776852 17.291607
v -9.999611 -1.333492 14.596500
v -8.594795 -1.333492 14.596539
v -9.531410 -1.776852 17.291592
v -9.999672 -1.717289 16.929501
v 12.193710 -1.333492 14.597103
v -8.341385 -0.376835 -0.281078
v 10.788832 -1.717289 16.930065
v 11.257097 -1.776852 17.292156
v 10.788895 -1.333492 14.597065
v -7.528327 -1.700558 17.452183
v -7.582138 -1.545948 17.506207
v -7.528480 -1.644123 17.084099
v 9.721796 -2.003216 19.121746
v 9.721844 -2.114880 19.512978
v 9.721985 -2.449894 20.686691
v 9.721935 -2.354549 20.352642
v 9.722322 -3.231586 23.425327
v 9.668652 -3.730190 24.586773
v -7.529144 -4.013271 26.163502
v -7.582962 -3.866001 26.232944
v -7.529083 -3.917927 25.829456
v 9.722797 -4.348286 27.337681
v 9.722847 -4.477917 27.791843
v 9.669033 -4.626820 27.728107
v 1.096989 -2.166805 19.109249
v 1.096920 -2.262157 19.443287
v 1.096795 -4.400219 26.933952
v 1.096726 -4.495564 27.267994
v -3.622310 -0.900227 12.815975
v -8.341717 -0.900227 12.815849
v -3.622310 -0.764797 12.845715
v 5.382845 -4.626858 27.728115
v 1.096787 -1.997051 18.323605
v 1.096940 -2.053493 18.691677
v 1.042908 -4.348286 27.337444
v 1.043114 -2.114880 19.512745
v -7.528335 -2.673229 21.468685
v 9.722803 -1.502239 16.159344
v -7.528175 -1.766667 17.883282
v -7.474517 -1.864842 17.461174
v 9.775600 -1.855930 19.191200
v -7.474216 -1.997051 18.323372
v 9.721893 -2.226551 19.904209
v 9.775696 -2.079273 19.973671
v 9.721844 -2.131207 19.570164
v 9.668182 -2.613491 20.674427
v 9.722511 -3.678265 24.990280
v -7.529216 -4.124943 26.554737
v -7.475338 -4.176876 26.151249
v 9.722893 -4.573254 28.125881
v 1.096837 -2.613491 20.674198
v 1.096901 -2.518147 20.340153
v 1.097096 -0.900227 12.816105
v 5.382893 -4.722195 28.062157
v 1.096695 -4.176876 26.151478
v 1.096745 -4.272221 26.485523
v 1.096970 -1.921284 17.829487
v 1.096722 -4.201008 27.406910
v 1.096917 -1.967602 19.582199
v 1.150773 -1.766667 17.883518
v 5.382889 -4.573292 28.125904
v -7.529251 -1.303928 14.865582
v -7.529098 -1.370030 15.296680
v -7.583061 -1.149311 14.919609
v -7.529407 -1.247486 14.497509
v -7.475441 -1.468212 14.874580
v 9.722626 -1.568348 16.590443
v 9.776436 -1.413731 16.644474
v 9.722797 -1.511906 16.222355
v 9.721748 -1.898884 18.745937
v 9.722553 -3.789936 25.381504
v 9.776367 -3.642658 25.450962
v 9.722507 -3.694584 25.047466
v -7.529354 -4.348286 27.337215
v -7.475467 -4.400219 26.933727
v 1.096886 -2.708836 21.008244
v -3.622310 -1.035656 12.786240
v 1.096760 -4.081532 25.817436
v 1.096814 -1.864842 17.461407
v 1.096985 -1.808399 17.093327
v -7.528400 -2.784901 21.859921
v 1.096943 -1.744267 18.799732
v -7.582149 -2.525951 21.538136
v 5.436703 -4.424381 28.189640
v 9.668818 -1.732624 16.599430
v -7.527931 -2.003216 19.121273
v -7.528003 -2.114880 19.512508
v -7.474128 -2.166805 19.109016
v -7.528026 -1.832775 18.314377
v -7.581829 -1.678158 18.368401
v -7.528179 -1.776333 17.946304
v -7.528133 -2.338223 20.294983
v -7.474258 -2.390148 19.891483
v 9.668272 -2.836834 21.456890
v -7.528606 -3.119915 23.033623
v -7.582412 -2.972637 23.103081
v -7.528537 -3.024570 22.699585
v 9.668743 -3.953533 25.369236
v -7.529285 -4.236614 26.945972
v -7.583099 -4.089336 27.015423
v -7.529216 -4.141270 26.611935
v 1.096871 -3.506847 23.804073
v 1.096806 -3.602200 24.138103
v 1.096714 -3.953533 25.369011
v 1.096776 -3.858189 25.034962
v 1.096817 -2.836834 21.456661
v 1.096879 -2.741482 21.122623
v 1.096859 -2.390148 19.891716
v 1.096909 -2.485493 20.225761
v 1.097004 -1.676182 16.231117
v 1.042931 -4.124943 26.554966
v 1.150712 -2.338223 20.295219
v 1.096959 -1.612049 17.937546
v 9.775890 -2.525951 21.538601
v -7.528945 -1.436138 15.727779
v -7.582756 -1.281521 15.781807
v -7.529098 -1.379696 15.359703
v 9.722454 -1.634457 17.021549
v 9.668472 -1.864842 17.461636
v -7.527866 -1.907864 18.787239
v 9.722126 -2.784901 21.860378
v 9.722178 -2.896572 22.251614
v 9.775984 -2.749294 22.321072
v 9.722126 -2.801220 21.917576
v -7.528675 -3.231586 23.424862
v -7.474796 -3.283520 23.021370
v -7.528881 -3.566593 24.598576
v -7.528945 -3.678265 24.989811
v -7.475067 -3.730190 24.586315
v 9.722601 -3.901600 25.772728
v 9.668840 -4.176876 26.151707
v -7.474391 -2.613491 20.673969
v 1.096764 -4.048878 25.703053
v 1.096783 -3.825542 24.920586
v 1.096825 -3.378864 23.355640
v 1.096863 -2.932178 21.790699
v 1.096920 -2.294804 19.557667
v 1.096833 -1.732624 16.599201
v 1.096985 -1.789074 16.967289
v 1.042950 -3.901600 25.772495
v 1.150593 -3.678265 24.990047
v 1.096863 -2.637623 21.929600
v 1.043053 -2.784901 21.860149
v 1.043179 -1.634457 17.021313
v -7.528793 -1.502239 16.158878
v -7.475132 -1.600414 15.736771
v 9.722282 -1.700558 17.452648
v 9.776085 -1.545948 17.506680
v 9.722103 -1.766667 17.883751
v 9.722454 -1.644123 17.084568
v -7.581741 -1.855930 19.190731
v -7.527866 -1.898884 18.745472
v 9.668369 -3.060169 22.239361
v 9.722412 -3.454922 24.207798
v -7.528812 -3.471241 24.264538
v 9.722460 -3.566593 24.599041
v 9.776268 -3.419315 24.668499
v 9.722410 -3.471241 24.265003
v -7.529483 -4.573254 28.125416
v -7.475605 -4.626820 27.727650
v 1.097008 -1.656857 16.105083
v 1.096795 -3.060169 22.239132
v -3.189483 -4.722195 28.061924
v 1.096852 -3.730190 24.586544
v 1.096802 -3.634846 24.252510
v 1.096894 -3.283520 23.021603
v 1.096848 -3.188168 22.687565
v 1.096764 -3.754330 25.841942
v 1.096795 -3.307644 24.277027
v 1.150612 -3.454922 24.207569
v -7.528137 -2.354549 20.352177
v 1.096898 -2.190945 20.364674
v -7.528270 -2.561558 21.077457
v 1.043137 -1.898884 18.745701
v 1.096989 -1.479839 17.075340
v 1.150815 -1.502239 16.159111
v -7.528202 -2.449894 20.686222
v -7.582012 -2.302616 20.755665
v -3.189483 -4.573292 28.125668
v -7.528480 -1.634457 17.021084
v -7.474826 -1.732624 16.598972
v 9.721924 -1.832775 18.314846
v 9.775730 -1.678158 18.368877
v 9.722099 -1.776333 17.946770
v -7.528064 -2.226551 19.903751
v -7.581878 -2.079273 19.973202
v -7.528003 -2.131207 19.569702
v 9.668087 -2.390148 19.891941
v 9.775791 -2.302616 20.756138
v 9.722036 -2.561558 21.077923
v 9.722080 -2.673229 21.469151
v 9.722034 -2.577885 21.135109
v 9.722225 -3.008244 22.642857
v -7.582695 -3.419315 24.668030
v -7.529079 -3.901600 25.772266
v -7.475204 -3.953533 25.368778
v 9.722750 -4.236614 26.946442
v 9.776562 -4.089336 27.015900
v 9.722702 -4.141270 26.612400
v -7.529418 -4.477917 27.791378
v 1.096848 -3.155514 22.573177
v -7.474933 -3.506847 23.803844
v -3.189415 -4.626858 27.727886
v 1.096726 -4.531483 27.393845
v 1.096825 -3.084309 23.494556
v -7.528675 -3.247906 23.482067
v -7.528812 -3.454922 24.207333
v 1.043015 -3.231586 23.425098
v 1.096879 -2.414288 21.147137
v 1.150692 -2.561558 21.077694
v -7.528739 -3.343250 23.816097
v -7.582553 -3.195972 23.885555
v 1.096703 -4.573322 28.125908
v -7.529403 -1.236851 14.428165
v -7.528636 -1.568348 16.589981
v -7.582447 -1.413731 16.644001
v -7.528793 -1.511906 16.221893
v 9.721748 -1.907864 18.787701
v 9.667990 -2.166805 19.109478
v 9.668118 -1.997051 18.323833
v 9.721939 -2.338223 20.295448
v 9.722271 -3.119915 23.034088
v 9.776081 -2.972637 23.103550
v 9.722225 -3.024570 22.700054
v 9.668468 -3.283520 23.021835
v -7.529014 -3.789936 25.381054
v -7.582824 -3.642658 25.450489
v -7.528949 -3.694584 25.047001
v 9.668938 -4.400219 26.934185
v 1.096940 -2.071461 18.775211
v 1.096745 -4.304874 26.599915
v -7.474533 -2.836834 21.456432
v 1.096962 -1.940609 17.955528
v 1.096779 -3.530987 25.059505
v 1.150651 -3.008244 22.642624
v -7.528274 -2.577885 21.134647
v 1.097004 -1.347630 16.213135
v -3.243301 -4.424381 28.189400
v -9.479252 -6.455486 31.639046
v 9.734650 -2.698315 21.929829
v 9.734932 -3.368336 24.277264
v 9.734554 -2.474972 21.147369
v -7.517181 -1.338307 13.631668
v -7.624816 -1.011685 13.626312
v -7.624504 -1.143902 14.488510
v 9.628750 -1.338307 13.632130
v 9.736031 -1.143902 14.488983
v 9.736387 -1.011685 13.626785
v 9.628401 -1.472454 14.506973
v 9.628056 -1.585339 15.243114
v 9.735678 -1.276112 15.351185
v -7.516883 -1.472454 14.506504
v -7.624198 -1.276112 15.350712
v -7.516574 -1.604664 15.368694
v -7.623889 -1.408314 16.212902
v 9.628048 -1.604664 15.369156
v 9.627710 -1.717548 16.105320
v 9.735321 -1.408314 16.213367
v 9.627703 -1.736874 16.231346
v 9.734976 -1.540531 17.075581
v -7.516265 -1.736874 16.230885
v -7.623577 -1.540531 17.075104
v -7.515960 -1.869091 17.093098
v -7.623275 -1.672741 17.937305
v 9.627357 -1.869091 17.093555
v 9.734619 -1.672741 17.937778
v 9.626656 -2.132145 18.775440
v 9.734360 -2.028294 19.582432
v 9.734268 -1.804958 18.799969
v -7.515350 -2.132145 18.774982
v -7.622955 -1.804958 18.799496
v -7.623100 -2.028294 19.581966
v 9.627007 -2.001293 17.955757
v -7.515659 -2.001293 17.955299
v -7.515480 -2.355495 19.557438
v -7.623233 -2.251637 20.364437
v 9.626749 -2.355495 19.557896
v 9.734455 -2.251637 20.364906
v 9.626842 -2.578838 20.340382
v 9.626938 -2.802174 21.122852
v 9.627031 -3.025517 21.905323
v 9.734743 -2.921658 22.712307
v -7.516014 -3.216206 22.572945
v -7.515884 -3.025517 21.904865
v -7.623500 -2.698315 21.929371
v -7.623634 -2.921658 22.711834
v -7.516014 -3.248859 22.687336
v -7.623771 -3.144993 23.494320
v 9.627132 -3.248859 22.687798
v 9.734844 -3.144993 23.494793
v 9.627228 -3.472195 23.470272
v 9.627321 -3.662891 24.138336
v -7.516284 -3.695530 24.252277
v -7.623912 -3.368336 24.276794
v -7.624046 -3.591679 25.059269
v 9.627314 -3.695530 24.252735
v 9.735031 -3.591679 25.059742
v 9.627407 -3.918873 25.035191
v 9.735126 -3.815014 25.842182
v -7.516429 -3.918873 25.034733
v -7.624179 -3.815014 25.841709
v -7.516559 -4.142223 25.817204
v -7.624317 -4.038364 26.624184
v 9.627502 -4.142223 25.817661
v 9.627602 -4.332905 26.485748
v 9.735226 -4.038364 26.624657
v 9.627602 -4.365559 26.600147
v 9.735321 -4.261700 27.407139
v -7.516685 -4.365559 26.599682
v -7.624454 -4.261700 27.406673
v -7.516826 -4.592167 27.393612
v -7.624588 -4.485035 28.189144
v 9.627697 -4.592167 27.394070
v 9.735420 -4.485035 28.189617
v 1.055787 -1.338123 13.631119
v -7.515613 -2.578838 20.339924
v -7.516155 -3.472195 23.469814
v -8.383003 -0.825482 12.845589
v 1.055806 -0.825482 12.845840
v -8.383003 -1.096340 12.786106
v 10.494621 -0.825482 12.846100
v 10.494621 -1.096340 12.786621
v -7.515758 -2.802174 21.122395
v -7.623367 -2.474972 21.146900
v 10.494469 -1.804958 18.799992
v 10.494469 -2.075825 18.740505
v 10.494205 -4.671101 28.969704
v 10.494213 -4.941967 28.910217
v 1.055394 -4.671101 28.969448
v -8.383415 -4.671101 28.969196
v -8.383408 -4.941967 28.909702
v 1.055398 -4.941967 28.909962
v -8.383152 -1.804958 18.799477
v -8.383152 -2.075825 18.739998
v 1.055413 -4.485104 28.189655
v 1.055787 -1.011471 13.625641
v -8.636082 -1.712566 14.548309
v -9.104347 -1.653004 14.186245
v -9.572624 -1.653004 14.186234
v -10.040897 -1.712566 14.548267
v 11.215885 -1.653004 14.186798
v 10.747608 -1.712566 14.548832
v 12.152424 -1.712566 14.548870
v 11.684156 -1.653004 14.186810
v 14.268473 -2.075825 18.740612
v 12.152359 -1.777981 16.930103
v 11.684082 -1.837544 17.292171
v -8.636147 -1.777981 16.929539
v -9.104424 -1.837544 17.291607
v -12.157009 -1.096340 12.786007
v -10.040897 -1.394184 14.596500
v -9.572624 -1.334622 14.234463
v -8.383480 -5.842110 31.482204
v -12.157417 -4.941967 28.909603
v -12.157486 -5.842110 31.482098
v -8.636082 -1.394184 14.596539
v -9.104347 -1.334622 14.234478
v -9.572697 -1.837544 17.291592
v -10.040962 -1.777981 16.929501
v -12.157158 -2.075825 18.739891
v 12.152424 -1.394184 14.597103
v 14.268620 -1.096340 12.786724
v -8.382668 -0.437527 -0.281078
v 10.494953 -0.437527 -0.280567
v 14.268213 -4.941967 28.910320
v 14.268953 -0.437527 -0.280464
v 10.494144 -5.842110 31.482716
v 14.268145 -5.842110 31.482822
v 11.684156 -1.334622 14.235043
v 10.747543 -1.777981 16.930065
v 11.215811 -1.837544 17.292156
v -12.156677 -0.437527 -0.281181
v 11.215885 -1.334622 14.235031
v 10.747608 -1.394184 14.597065
v -12.157417 -5.219830 28.909603
v -12.157486 -6.331730 31.637486
v -12.157486 -6.119976 31.482098
v 10.494137 -6.053856 31.638103
v 14.268145 -6.053856 31.638206
v 14.268213 -5.219830 28.910320
v 14.268213 -5.341434 28.905125
v 14.268145 -6.331730 31.638206
v 8.522581 -6.331730 31.638050
v -6.688865 -6.331730 31.637630
v -4.515800 -6.331730 31.637691
v -2.342739 -6.331730 31.637756
v -0.169670 -6.331730 31.637814
v 2.003388 -6.331730 31.637875
v 4.176449 -6.331730 31.637928
v 6.349518 -6.331730 31.637989
v -8.383480 -6.053856 31.637589
v -12.157486 -6.053856 31.637486
v 14.268473 -2.353687 18.740612
v 14.268620 -1.374218 12.786724
v 14.268953 -0.715397 -0.280464
v -12.156677 -0.715397 -0.281181
v -12.157009 -1.374218 12.786007
v -12.157158 -2.353687 18.739891
vn -0.5345 -0.4266 0.7296
vn -0.8823 -0.4692 0.0375
vn -0.5538 -0.8182 0.1543
vn -0.6530 -0.7489 0.1132
vn 0.8807 -0.4728 0.0285
vn 0.5869 -0.6527 0.4791
vn 0.4800 -0.7989 0.3624
vn 0.4756 -0.8796 0.0112
vn -0.6919 -0.6777 0.2490
vn -0.4800 -0.5606 0.6748
vn -0.9591 -0.2289 -0.1665
vn -0.9337 -0.3554 0.0439
vn -0.9697 -0.2434 0.0199
vn -0.4854 -0.7904 0.3736
vn -0.6391 -0.4033 0.6549
vn -0.9430 -0.3102 -0.1202
vn -0.9336 -0.3557 0.0435
vn -0.9695 -0.2441 0.0206
vn 0.8212 -0.5247 0.2243
vn 0.7758 -0.6300 -0.0356
vn 0.8682 -0.4951 -0.0321
vn 0.9542 -0.2991 -0.0056
vn -0.3974 -0.5150 0.7595
vn -0.9602 -0.2381 -0.1457
vn -0.9410 -0.3383 0.0034
vn -0.9612 -0.2756 -0.0077
vn -0.5745 -0.6597 0.4845
vn -0.4964 -0.5141 0.6995
vn -0.9889 -0.1475 -0.0149
vn -0.8749 -0.4582 0.1568
vn -0.9539 -0.2249 0.1986
vn 0.9162 -0.3804 0.1259
vn 0.8978 -0.4317 0.0870
vn 0.8888 -0.4540 0.0630
vn 0.8775 -0.4788 -0.0285
vn 0.8825 -0.3936 -0.2574
vn 0.9124 -0.3627 -0.1897
vn 0.8983 -0.4393 0.0067
vn -0.6948 -0.7003 0.1636
vn -0.4031 -0.5720 0.7144
vn -0.9840 -0.1781 0.0069
vn -0.9055 -0.4228 -0.0373
vn -0.9233 -0.3833 0.0234
vn 0.9210 -0.3876 0.0390
vn 0.9063 -0.4200 -0.0479
vn 0.9214 -0.3861 -0.0441
vn -0.6919 -0.6777 0.2489
vn -0.5281 -0.6152 0.5853
vn -0.9590 -0.2001 -0.2009
vn -0.9117 -0.3912 0.1257
vn -0.9802 -0.1803 0.0819
vn -0.4888 -0.8279 0.2751
vn -0.6091 -0.6192 0.4956
vn -0.9504 -0.2247 -0.2150
vn -0.8786 -0.4661 0.1045
vn -0.9606 -0.2261 0.1618
vn 0.8826 -0.4528 0.1265
vn 0.8493 -0.5278 0.0120
vn 0.9948 -0.0959 -0.0339
vn 0.9468 -0.2956 0.1268
vn 0.9348 -0.3357 -0.1160
vn 0.9522 -0.2797 -0.1229
vn 0.9550 -0.2341 -0.1819
vn 0.9500 0.2807 0.1367
vn 0.9082 0.1102 0.4038
vn 0.9229 -0.0673 -0.3792
vn 0.9282 -0.3686 0.0499
vn 0.9143 -0.3672 0.1708
vn 0.9110 -0.3767 0.1677
vn 0.9654 -0.1307 -0.2256
vn -0.6948 -0.7003 0.1637
vn -0.7520 -0.5134 0.4134
vn -0.9757 -0.2057 -0.0749
vn -0.9436 -0.3225 -0.0752
vn -0.9487 -0.3094 -0.0654
vn 0.9090 -0.4162 0.0222
vn 0.8879 -0.4509 -0.0912
vn 0.9131 -0.3983 -0.0876
vn 0.9545 -0.2950 -0.0427
vn -0.5786 -0.7091 0.4029
vn -0.7189 -0.5122 0.4700
vn -0.9232 -0.3836 0.0256
vn -0.9497 -0.2997 0.0913
vn -0.9844 -0.1420 -0.1037
vn 0.8889 -0.4190 0.1855
vn 0.8666 -0.4782 0.1425
vn 0.8746 -0.4799 0.0688
vn 0.8972 -0.4403 -0.0338
vn 0.8966 -0.3895 -0.2108
vn 0.9307 -0.3646 0.0284
vn 0.9283 -0.3686 0.0499
vn -0.5600 -0.8265 0.0571
vn -0.5092 -0.3869 0.7688
vn -0.9370 -0.2317 -0.2615
vn -0.9155 -0.3970 0.0657
vn -0.9794 -0.1957 0.0506
vn -0.4182 -0.6344 0.6501
vn -0.9332 -0.2187 -0.2851
vn -0.8992 -0.4231 0.1113
vn -0.9822 -0.1633 0.0931
vn 0.8971 -0.4329 0.0884
vn 0.8688 -0.4949 -0.0131
vn 0.9070 -0.4193 -0.0407
vn 0.9545 -0.2951 -0.0427
vn -0.6949 -0.7003 0.1635
vn -0.3889 -0.5874 0.7098
vn -0.9930 -0.1164 -0.0205
vn -0.8714 -0.4900 0.0254
vn -0.9147 -0.3815 0.1331
vn -0.3913 -0.6590 0.6423
vn -0.9048 -0.4191 0.0753
vn -0.4828 -0.4624 0.7437
vn 0.4001 -0.6680 0.6275
vn 0.5717 -0.3420 0.7458
vn 0.8967 -0.4411 0.0361
vn 0.1180 -0.9923 -0.0367
vn -0.5695 -0.7958 -0.2058
vn -0.1451 -0.9877 -0.0578
vn 0.0424 -0.8867 0.4603
vn 0.4561 -0.8038 0.3819
vn -0.0335 -0.8316 0.5544
vn 0.1004 -0.9249 -0.3667
vn 0.4801 -0.8717 -0.0976
vn 0.5436 -0.8317 -0.1130
vn -0.2187 -0.9590 -0.1802
vn 0.6635 -0.7442 0.0770
vn 0.5951 -0.6616 -0.4563
vn -0.1108 -0.9278 -0.3563
vn -0.1714 -0.9685 -0.1806
vn 0.5886 -0.8079 -0.0297
vn 0.6848 -0.6277 -0.3702
vn 0.0167 -0.9727 -0.2315
vn -0.2121 -0.4115 0.8864
vn -0.1813 -0.9123 0.3671
vn 0.2004 -0.9685 -0.1476
vn 0.5746 -0.8179 -0.0282
vn 0.7177 -0.6502 -0.2493
vn -0.1932 -0.9514 -0.2397
vn -0.0510 -0.9627 -0.2657
vn 0.4560 -0.8039 0.3819
vn -0.0336 -0.8316 0.5543
vn 0.0283 -0.9281 -0.3713
vn 0.6569 -0.7380 -0.1546
vn 0.6371 -0.7517 -0.1703
vn -0.1042 -0.9841 -0.1441
vn -0.0809 -0.6710 0.7370
vn -0.0541 -0.6742 0.7365
vn -0.2776 -0.1981 0.9401
vn -0.0000 -0.2145 0.9767
vn -0.0163 -0.2499 0.9681
vn -0.0000 -0.9584 0.2854
vn -0.0321 -0.7894 0.6131
vn -0.0978 -0.9450 -0.3120
vn 0.0365 -0.8959 -0.4427
vn 0.1474 -0.9876 -0.0539
vn 0.7575 -0.5962 -0.2661
vn -0.1426 -0.9728 -0.1825
vn -0.1572 -0.9302 -0.3316
vn -0.6771 -0.6660 -0.3131
vn 0.2447 -0.8442 0.4768
vn 0.0329 -0.8096 0.5860
vn 0.0888 -0.8982 -0.4305
vn -0.7373 -0.6741 -0.0442
vn -0.0336 -0.8316 0.5544
vn 0.0283 -0.9281 -0.3712
vn 0.5746 -0.8179 -0.0281
vn -0.1067 -0.9008 -0.4209
vn -0.6671 -0.6119 0.4248
vn -0.7213 -0.6723 -0.1664
vn -0.1287 -0.9688 -0.2116
vn -0.7097 -0.6844 -0.1672
vn -0.7422 -0.6689 0.0422
vn -0.1055 -0.9943 -0.0171
vn -0.0932 -0.9955 0.0173
vn -0.6892 -0.7245 0.0109
vn 0.1869 -0.8453 0.5005
vn -0.7422 -0.6689 0.0423
vn -0.0293 -0.9984 -0.0479
vn 0.4542 -0.7547 0.4734
vn -0.0336 -0.7627 0.6459
vn -0.1055 -0.9943 -0.0170
vn -0.0294 -0.9984 -0.0479
vn -0.0336 -0.7626 0.6460
vn -0.0483 -0.9736 0.2229
vn -0.7812 -0.6239 -0.0236
vn -0.8240 -0.5657 -0.0301
vn 0.7933 -0.3769 0.4781
vn -0.0180 -0.5664 0.8239
vn -0.4944 -0.7879 0.3671
vn -0.6547 -0.7019 0.2806
vn -0.0809 -0.4892 0.8684
vn 0.3855 -0.8120 0.4383
vn 0.7526 -0.5386 0.3788
vn -0.1823 -0.4170 0.8904
vn -0.4749 -0.7313 0.4896
vn 0.7124 -0.6185 0.3316
vn 0.1026 -0.5351 0.8385
vn -0.0911 -0.3336 0.9383
vn 0.8225 -0.3887 0.4153
vn -0.2200 -0.2792 0.9347
vn -0.2513 -0.3252 0.9116
vn -0.0361 -0.2627 0.9642
vn -0.1141 -0.5682 0.8149
vn 0.5795 -0.4610 0.6721
vn 0.0479 -0.4269 0.9030
vn -0.6546 -0.5242 0.5446
vn 0.6176 -0.6681 0.4149
vn -0.0358 -0.5648 0.8244
vn 0.4820 -0.5028 0.7176
vn 0.4595 -0.6664 0.5871
vn 0.1931 -0.4218 0.8859
vn -0.4269 -0.5086 0.7477
vn -0.4020 -0.6169 0.6766
vn 0.4268 -0.5085 0.7478
vn -0.2515 -0.3251 0.9116
vn -0.0733 -0.3030 0.9502
vn 0.7275 -0.2385 0.6433
vn 0.8621 -0.4894 0.1315
vn 0.3149 -0.4075 0.8572
vn -0.0548 -0.5672 0.8218
vn 0.5678 -0.7431 0.3541
vn 0.6083 -0.3394 0.7175
vn -0.0835 -0.3717 0.9246
vn -0.7008 -0.5684 0.4311
vn 0.7821 -0.3401 0.5222
vn -0.0078 -0.5592 0.8290
vn -0.5025 -0.7706 0.3921
vn 0.6375 -0.5765 0.5111
vn -0.0169 -0.4372 0.8992
vn 0.0085 -0.2257 0.9742
vn 0.7622 -0.4872 0.4262
vn 0.7652 -0.3520 0.5390
vn -0.0239 -0.4665 0.8842
vn -0.5130 -0.7251 0.4595
vn -0.3303 -0.4807 0.8123
vn -0.0632 -0.6435 0.7628
vn -0.1975 -0.2427 0.9498
vn 0.0299 -0.1470 0.9887
vn -0.6160 -0.5433 0.5703
vn -0.5924 -0.5652 0.5741
vn -0.4546 -0.8051 0.3809
vn -0.6971 -0.5090 0.5050
vn -0.9301 -0.3672 0.0010
vn -0.9844 -0.1418 -0.1038
vn -0.9782 -0.2042 -0.0374
vn -0.9348 -0.3357 -0.1160
vn -0.9339 -0.3408 -0.1078
vn -0.3591 -0.8480 0.3898
vn -0.5911 -0.3096 0.7448
vn -0.8288 -0.4984 -0.2543
vn -0.8169 -0.4765 0.3250
vn -0.9826 0.0485 0.1792
vn 0.3744 -0.9121 0.1669
vn -0.0166 -0.1710 0.9851
vn -0.3174 -0.3732 0.8717
vn 0.1679 -0.2412 0.9559
vn -0.3174 -0.3731 0.8718
vn -0.2085 -0.2624 0.9422
vn -0.0000 0.9987 0.0504
vn -0.0251 0.9991 0.0340
vn -0.0432 0.9978 0.0503
vn 0.4338 0.1349 -0.8909
vn 0.9589 0.0425 -0.2807
vn 0.8200 0.0857 -0.5659
vn 0.2181 0.1462 -0.9649
vn -0.3281 0.1415 -0.9340
vn -0.3283 0.1415 -0.9339
vn -0.8199 0.0847 -0.5662
vn -0.9588 0.0411 -0.2809
vn -0.9820 -0.1863 -0.0320
vn -0.9802 -0.0285 0.1962
vn -0.9588 0.0411 -0.2811
vn 0.9588 0.0425 -0.2807
vn 0.9802 -0.0305 0.1959
vn 0.9820 -0.1861 -0.0332
vn 0.8200 0.0857 -0.5660
vn -0.3286 0.1414 -0.9338
vn 0.2180 0.1462 -0.9649
vn -0.9820 -0.1864 -0.0320
vn -0.4151 -0.8989 0.1401
vn -0.1592 -0.8196 0.5504
vn -0.1284 -0.5362 0.8343
vn -0.6660 -0.6482 -0.3692
vn -0.4408 -0.8934 -0.0871
vn -0.7982 -0.5887 -0.1280
vn -0.5079 -0.8147 0.2799
vn -0.6037 -0.7777 -0.1755
vn -0.9483 -0.2693 0.1680
vn -0.4953 -0.8470 -0.1931
vn -0.7848 -0.6121 -0.0973
vn -0.9525 -0.3009 -0.0466
vn -0.6649 -0.5032 0.5520
vn 0.0495 -0.6218 0.7816
vn -0.6499 -0.4996 0.5727
vn -0.1598 -0.4294 0.8889
vn 0.5166 -0.6129 0.5979
vn 0.6829 -0.5703 0.4565
vn -0.5219 -0.6282 0.5771
vn -0.1667 -0.6076 0.7766
vn 0.4709 -0.7630 0.4428
vn 0.1484 -0.4591 0.8759
vn 0.7202 -0.5967 0.3539
vn 0.0197 -0.8306 0.5565
vn 0.5524 -0.6358 0.5392
vn -0.8012 -0.5163 0.3026
vn -0.1302 -0.8594 0.4944
vn 0.5524 -0.6356 0.5393
vn -0.1896 -0.8739 0.4477
vn -0.2785 -0.3089 0.9094
vn 0.4025 -0.5020 0.7655
vn 0.0197 -0.8306 0.5566
vn 0.5524 -0.6357 0.5393
vn 0.0493 -0.9910 0.1248
vn 0.1785 -0.4874 0.8547
vn 0.7724 -0.5670 0.2861
vn -0.6649 -0.5032 0.5519
vn -0.0502 -0.8111 0.5827
vn -0.0145 -0.5879 0.8088
vn 0.6137 -0.6896 0.3845
vn -0.1089 -0.9466 -0.3034
vn -0.2121 -0.5501 0.8077
vn 0.4547 -0.7268 0.5148
vn -0.5477 -0.8316 0.0921
vn 0.6398 -0.7531 -0.1533
vn 0.6589 -0.7498 -0.0608
vn -0.5477 -0.8316 0.0919
vn 0.7060 -0.6849 -0.1803
vn -0.0218 -0.9959 -0.0879
vn -0.6610 -0.7502 0.0182
vn 0.0370 -0.9699 -0.2405
vn 0.6380 -0.7285 -0.2496
vn -0.5481 -0.8363 -0.0139
vn 0.7023 -0.6573 -0.2733
vn 0.6568 -0.7380 -0.1547
vn -0.4987 -0.8564 -0.1336
vn -0.6815 -0.7034 -0.2019
vn -0.0426 -0.9661 -0.2547
vn -0.2375 -0.9468 -0.2170
vn -0.6972 -0.6690 -0.2575
vn 0.1228 -0.3190 0.9398
vn 0.1204 -0.3212 0.9393
vn -0.6958 -0.7112 -0.1001
vn -0.8219 -0.5616 -0.0954
vn -0.6412 -0.7662 0.0426
vn -0.8322 -0.5515 -0.0573
vn -0.8534 -0.4771 -0.2100
vn -0.8731 -0.4861 0.0370
vn -0.9485 -0.3140 -0.0420
vn -0.9273 -0.2733 -0.2557
vn -0.9038 -0.4043 -0.1403
vn -0.8442 -0.5341 -0.0449
vn -0.8902 -0.4500 0.0713
vn -0.8410 -0.5410 -0.0035
vn -0.6840 -0.7211 -0.1106
vn -0.9344 -0.3560 -0.0140
vn -0.9222 -0.3865 0.0148
vn 0.4077 0.9098 -0.0779
vn 0.1521 0.9185 0.3651
vn 0.9184 0.3218 -0.2301
vn 0.5227 -0.7937 -0.3111
vn 0.4824 -0.8655 -0.1347
vn 0.4599 -0.7499 0.4756
vn 0.3523 -0.4942 -0.7948
vn 0.1444 -0.9859 -0.0846
vn 0.9360 -0.2616 -0.2357
vn 0.7370 -0.0874 -0.6702
vn -0.5411 -0.7618 0.3563
vn -0.9503 -0.2934 -0.1042
vn -0.7636 -0.2258 -0.6049
vn -0.4810 -0.5683 -0.6676
vn 0.8310 -0.2355 -0.5039
vn 0.8474 -0.5293 -0.0423
vn 0.8143 -0.5576 -0.1610
vn 0.3523 -0.3891 -0.8512
vn 0.6563 -0.6723 -0.3424
vn 0.2935 -0.8390 -0.4582
vn 0.7408 -0.4166 0.5269
vn 0.7314 0.0010 -0.6819
vn -0.3034 -0.8931 -0.3322
vn -0.5968 -0.6957 -0.3997
vn -0.4955 -0.1239 -0.8597
vn 0.4185 0.0602 -0.9062
vn 0.5355 -0.6025 -0.5918
vn 0.3178 -0.9005 -0.2969
vn -0.0596 0.1936 -0.9793
vn -0.0047 0.2625 -0.9649
vn 0.0533 -0.9953 0.0809
vn -0.1291 -0.9865 -0.1004
vn 0.2185 -0.0240 -0.9755
vn 0.1371 0.1518 -0.9789
vn 0.2160 -0.0406 -0.9756
vn -0.0358 0.1048 -0.9938
vn 0.1513 -0.1077 -0.9826
vn 0.0486 0.0794 -0.9957
vn 0.1163 -0.0661 -0.9910
vn -0.1571 0.0197 -0.9874
vn -0.0587 0.2112 -0.9757
vn 0.0486 0.0795 -0.9957
vn 0.1371 0.1519 -0.9789
vn 0.0103 -0.0967 -0.9953
vn -0.1596 -0.1759 -0.9714
vn 0.2518 -0.3020 -0.9195
vn 0.8310 -0.2355 -0.5040
vn -0.1313 -0.0331 -0.9908
vn -0.1023 -0.1649 -0.9810
vn 0.0383 0.1003 -0.9942
vn 0.6050 -0.1629 -0.7794
vn -0.0587 0.2111 -0.9757
vn 0.0062 0.1187 -0.9929
vn 0.1764 0.1248 -0.9764
vn 0.0103 -0.0968 -0.9953
vn -0.0382 0.1003 -0.9942
vn -0.1427 0.2317 -0.9623
vn 0.1168 0.2047 -0.9718
vn 0.1981 -0.1020 -0.9749
vn -0.1864 -0.1215 -0.9749
vn 0.1386 0.0251 -0.9900
vn 0.1242 -0.2018 -0.9715
vn -0.0993 -0.1251 -0.9872
vn -0.0341 -0.0246 -0.9991
vn 0.1366 0.0238 -0.9903
vn -0.2025 0.0125 -0.9792
vn -0.0074 0.2425 -0.9701
vn 0.2180 0.1225 -0.9682
vn 0.2061 -0.2203 -0.9534
vn -0.1126 -0.2035 -0.9726
vn 0.1386 0.0252 -0.9900
vn 0.0376 -0.0984 -0.9944
vn -0.2993 -0.2691 -0.9154
vn 0.0650 -0.1381 -0.9883
vn 0.0471 -0.0492 -0.9977
vn 0.0652 -0.1330 -0.9890
vn -0.2171 0.8938 0.3924
vn -1.0000 -0.0000 -0.0000
vn -0.0000 0.2145 -0.9767
vn 1.0000 -0.0000 -0.0000
vn -0.9775 -0.1829 -0.1048
vn 0.8385 0.5446 -0.0204
vn 0.4343 0.8947 0.1043
vn -0.1390 0.9361 0.3230
vn -0.8188 0.5270 0.2275
vn -0.3459 0.8804 0.3245
vn 0.2531 0.9573 0.1397
vn -0.1789 -0.9655 -0.1894
vn -0.3814 -0.7071 -0.5955
vn -0.2465 -0.9609 0.1263
vn -0.0335 -0.9636 -0.2652
vn -0.1695 -0.9009 -0.3996
vn -0.2290 -0.8711 -0.4344
vn -0.9925 0.0369 0.1166
vn 0.5245 -0.8161 -0.2425
vn -0.1653 -0.9597 -0.2274
vn -0.1660 -0.9598 -0.2264
vn -0.2779 -0.9335 -0.2267
vn -0.0094 -0.9785 -0.2058
vn -0.0845 -0.9757 -0.2023
vn -0.1527 -0.9435 -0.2942
vn 0.0087 -0.9752 -0.2212
vn 0.1280 -0.9427 -0.3080
vn 0.0335 -0.9636 -0.2652
vn 0.1707 -0.9711 -0.1671
vn 0.1501 -0.8335 -0.5317
vn 0.0035 -0.9988 0.0483
vn 0.2425 -0.8742 -0.4207
vn -0.0000 -0.9727 -0.2320
vn 0.3316 -0.9177 -0.2189
vn 0.2310 -0.8857 -0.4028
vn -0.0000 -0.3938 -0.9192
vn -0.2302 -0.8702 -0.4356
vn 0.1326 -0.9770 -0.1671
vn 0.1609 -0.9848 -0.0652
vn -0.1269 -0.9832 -0.1315
vn -0.2662 -0.8910 -0.3677
vn 0.9965 -0.0492 0.0679
vn 0.9969 -0.0000 0.0786
vn 0.9970 -0.0240 0.0735
vn -0.9981 -0.0244 0.0566
vn 0.1151 0.1156 -0.9866
vn -0.1110 0.0845 -0.9902
vn -0.0066 0.1523 -0.9883
vn -0.1649 0.9134 0.3721
vn 0.9268 -0.3701 0.0638
vn 0.8673 -0.3630 -0.3407
vn 0.9743 -0.1198 -0.1909
vn -0.0000 0.9835 0.1807
vn -0.0000 0.9761 0.2171
vn -0.0000 0.9867 0.1623
vn -0.0000 0.9867 0.1624
vn -0.0000 0.9818 0.1898
vn -0.0000 0.9888 0.1491
vn -0.0000 0.9930 0.1178
vn -0.0000 0.9439 0.3303
vn -0.0000 0.9505 0.3107
vn -0.0000 0.9537 0.3009
vn -0.0000 0.9800 0.1990
vn -0.0000 0.9909 0.1345
vn -0.0000 0.9924 0.1232
vn -0.0000 0.9518 0.3068
vn -0.4337 -0.1350 0.8909
vn -0.2180 -0.1471 0.9648
vn -0.6055 0.0726 0.7926
vn -0.7663 -0.0946 0.6355
vn 0.6019 0.0722 0.7953
vn 0.3280 -0.1415 0.9340
vn 0.3286 -0.1415 0.9338
vn 0.7662 -0.0958 0.6354
vn 0.3281 -0.1415 0.9340
vn 0.3283 -0.1415 0.9339
vn -0.2179 -0.1471 0.9648
vn 0.6019 0.0723 0.7953
vn 0.7662 -0.0957 0.6354
vn -0.0000 -0.5916 -0.8062
vn -0.0000 -0.3078 -0.9515
vn 0.0173 -0.3692 -0.9292
vn 0.0416 -0.5911 -0.8055
vn 0.0524 -0.0851 -0.9950
vn 0.0001 0.2622 -0.9650
vn -0.0000 0.2622 -0.9650
vn -0.0000 0.2621 -0.9650
vn -0.0251 -0.3073 -0.9513
vn -0.0322 -0.5913 -0.8058
vn -0.0561 -0.0492 -0.9972
vn -0.0000 -0.4096 -0.9123
vn -0.0000 -0.0000 1.0000
vn 0.0052 0.0029 1.0000
vn 0.0050 0.0023 1.0000
vn -0.0004 0.0440 -0.9990
vn -0.9913 0.0593 0.1173
vn -0.0561 -0.0491 -0.9972
vn -0.0000 -0.0120 -0.9999
vn 0.0004 0.0437 -0.9990
vn -0.0000 0.0437 -0.9990
vn 0.9540 -0.1991 -0.2242
vn 0.9977 -0.0218 0.0635
vn 0.9926 -0.0260 0.1187
vn -0.0000 1.0000 0.0085
s 1
g off
g Cofre_tan.003
usemtl tan.003
f 348//1 6//2 4//3
f 6//2 5//4 4//3
f 11//5 10//6 9//7
f 11//5 9//7 8//8
s 2
f 13//9 197//10 196//11
f 7//12 199//13 196//11
s 3
f 16//14 279//15 249//16
f 15//17 251//18 249//16
s 4
f 21//19 202//20 201//21
f 21//19 201//21 203//22
f 25//9 314//23 349//24
f 18//25 351//26 349//24
s 5
f 28//27 173//28 144//29
f 27//30 146//31 144//29
f 24//32 282//33 281//34
f 24//32 281//34 284//22
s 6
f 37//35 175//36 147//37
f 37//35 147//37 352//38
f 38//39 221//40 220//41
f 40//42 254//43 220//41
s 7
f 33//44 317//45 316//46
f 33//44 316//46 318//22
f 44//47 286//48 223//49
f 30//50 225//51 223//49
s 8
f 46//52 226//53 319//54
f 41//55 321//56 319//54
f 36//57 178//58 177//59
f 36//57 177//59 179//60
s 9
f 51//61 323//62 149//63
f 51//61 149//63 150//60
s 10
f 3//64 248//65 325//66
f 3//64 325//66 326//67
s 11
f 1//68 257//69 256//70
f 1//68 256//70 258//67
s 12
f 62//71 259//72 229//73
f 61//74 231//75 229//73
f 58//76 357//77 356//78
f 58//76 356//78 358//79
s 13
f 69//80 262//81 261//82
f 71//83 289//84 261//82
f 2//85 291//86 290//87
f 2//85 290//87 292//79
s 14
f 75//88 206//89 205//90
f 75//88 205//90 207//91
f 79//92 329//93 360//94
f 72//95 362//96 360//94
s 15
f 82//92 182//97 153//98
f 81//99 155//100 153//98
s 16
f 87//101 332//102 331//103
f 87//101 331//103 333//104
f 91//105 208//106 233//107
f 84//108 235//109 233//107
s 17
f 96//110 334//111 293//112
f 99//113 184//114 157//115
s 1
f 100//116 8//8 9//7
f 100//116 9//7 4//3
f 5//4 100//116 4//3
s 3
f 280//117 19//118 16//14
f 19//118 295//119 16//14
s 6
f 35//120 160//121 159//122
f 34//123 353//124 364//125
s 9
f 52//126 180//127 185//128
f 52//126 185//128 186//129
s 11
f 56//130 287//131 296//132
s 18
f 68//133 237//134 236//135
s 14
f 76//136 232//137 238//138
f 76//136 238//138 239//139
s 16
f 89//140 162//141 161//142
f 88//143 363//144 365//145
s 19
f 105//146 164//147 163//148
f 107//149 187//150 163//148
f 109//149 187//150 107//149
s 17
f 110//151 297//152 337//153
f 110//151 337//153 166//154
f 97//155 158//156 166//154
s 15
f 85//157 265//158 189//138
f 82//92 183//159 189//138
s 13
f 74//160 268//161 298//162
f 70//163 299//145 298//162
s 12
f 66//120 269//164 300//165
f 63//163 301//145 300//165
s 10
f 54//166 228//137 240//167
f 112//168 366//169 240//167
s 8
f 49//126 322//127 242//170
f 46//52 227//171 242//170
s 5
f 29//172 214//173 213//174
f 28//27 174//175 191//176
s 7
f 45//177 367//173 167//178
f 43//179 168//180 167//178
s 4
f 26//177 244//181 272//182
f 23//179 273//183 272//182
s 2
f 12//184 200//185 14//186
s 16
f 89//140 156//187 169//188
f 93//189 208//106 169//188
s 15
f 84//190 182//97 245//191
s 14
f 77//192 264//193 274//194
f 81//195 329//93 274//194
s 13
f 75//196 368//197 275//198
f 75//196 275//198 181//199
s 18
f 2//200 303//201 304//202
f 2//200 304//202 288//203
s 12
f 66//120 151//204 342//205
f 64//206 259//72 342//205
s 11
f 58//207 369//208 327//209
s 10
f 55//192 255//210 277//211
f 60//212 215//213 277//211
s 9
f 3//214 343//215 344//216
f 3//214 344//216 324//217
s 8
f 51//218 306//219 246//220
f 51//218 246//220 355//221
s 7
f 43//179 204//222 308//223
f 40//224 286//48 308//223
s 6
f 35//120 148//225 170//226
f 41//227 221//40 170//226
s 5
f 33//228 247//229 194//230
f 33//228 194//230 283//231
s 4
f 23//179 252//232 278//233
f 27//234 314//23 278//233
s 3
f 21//235 371//236 310//237
f 21//235 310//237 172//238
s 2
f 197//10 12//184 15//239
s 1
f 9//7 10//6 7//240
f 348//1 9//7 7//240
s 9
f 102//241 307//242 311//243
f 48//83 305//244 311//243
s 10
f 112//168 215//213 171//245
f 113//246 370//247 171//245
s 18
f 104//248 341//249 345//250
f 64//251 340//252 345//250
s 17
f 98//253 184//114 195//254
f 114//255 347//256 195//254
f 114//255 372//257 313//258
f 114//255 313//258 347//256
s 19
f 107//259 109//260 140//259
f 140//259 211//261 107//259
s 20
f 116//262 115//263 138//264
f 116//262 138//264 137//265
f 117//266 134//267 133//268
f 118//269 117//266 133//268
s 21
f 139//270 129//271 128//272
f 128//272 131//268 139//270
f 125//273 124//274 143//275
f 125//273 143//275 141//276
f 127//277 126//262 142//278
f 127//277 142//278 132//267
f 131//268 128//272 127//277
f 127//277 132//267 131//268
f 126//262 125//273 141//276
f 126//262 141//276 142//278
s 20
f 115//263 122//274 135//275
f 115//263 135//275 138//264
f 136//279 119//271 118//269
f 118//269 133//268 136//279
f 117//266 116//262 137//265
f 117//266 137//265 134//267
s 17
f 347//256 297//152 110//151
f 347//256 313//258 297//152
f 313//258 94//280 297//152
f 313//258 293//112 94//280
f 313//258 372//257 293//112
f 372//257 96//110 293//112
f 195//254 188//281 98//253
f 195//254 347//256 188//281
f 347//256 110//151 188//281
f 195//254 218//282 114//255
f 195//254 184//114 218//282
f 184//114 99//113 218//282
s 18
f 345//250 336//283 104//248
f 345//250 340//252 336//283
f 340//252 103//284 336//283
f 345//250 346//285 64//251
f 345//250 341//249 346//285
f 341//249 71//286 346//285
s 10
f 171//245 366//169 112//168
f 171//245 370//247 366//169
f 370//247 111//287 366//169
f 171//245 217//288 113//246
f 171//245 215//213 217//288
f 215//213 60//212 217//288
s 9
f 311//243 266//289 102//241
f 311//243 305//244 266//289
f 305//244 101//290 266//289
f 311//243 312//291 48//83
f 311//243 307//242 312//291
f 307//242 113//292 312//291
s 3
f 172//238 295//119 20//293
f 172//238 310//237 295//119
f 310//237 16//14 295//119
f 310//237 279//15 16//14
f 310//237 371//236 279//15
f 371//236 18//294 279//15
s 4
f 278//233 273//183 23//179
f 278//233 314//23 273//183
f 314//23 25//9 273//183
f 278//233 309//295 27//234
f 278//233 252//232 309//295
f 252//232 24//296 309//295
s 5
f 283//231 191//176 32//297
f 283//231 194//230 191//176
f 194//230 28//27 191//176
f 194//230 173//28 28//27
f 194//230 247//229 173//28
f 247//229 30//298 173//28
s 6
f 170//226 160//121 35//120
f 170//226 221//40 160//121
f 221//40 38//39 160//121
f 170//226 193//299 41//227
f 170//226 148//225 193//299
f 148//225 36//300 193//299
s 7
f 308//223 168//180 43//179
f 308//223 286//48 168//180
f 286//48 44//47 168//180
f 308//223 216//301 40//224
f 308//223 204//222 216//301
f 204//222 37//302 216//301
s 8
f 355//221 243//303 50//304
f 355//221 246//220 243//303
f 246//220 46//52 243//303
f 246//220 226//53 46//52
f 246//220 306//219 226//53
f 306//219 48//305 226//53
s 9
f 324//217 210//306 53//307
f 324//217 344//216 210//306
f 344//216 102//241 210//306
f 344//216 307//242 102//241
f 344//216 343//215 307//242
f 343//215 113//292 307//242
s 10
f 277//211 270//308 55//192
f 277//211 215//213 270//308
f 215//213 112//168 270//308
f 277//211 276//309 60//212
f 277//211 255//210 276//309
f 255//210 1//310 276//309
s 11
f 327//209 335//311 57//312
f 327//209 369//208 335//311
f 369//208 59//313 335//311
s 12
f 342//205 269//164 66//120
f 342//205 259//72 269//164
f 259//72 62//71 269//164
f 342//205 339//314 64//206
f 342//205 151//204 339//314
f 151//204 67//315 339//314
s 18
f 288//203 237//134 68//133
f 288//203 304//202 237//134
f 304//202 104//248 237//134
f 304//202 341//249 104//248
f 304//202 303//201 341//249
f 303//201 71//286 341//249
s 13
f 181//199 268//161 74//160
f 181//199 275//198 268//161
f 275//198 69//80 268//161
f 275//198 262//81 69//80
f 275//198 368//197 262//81
f 368//197 72//316 262//81
s 14
f 274//194 267//317 77//192
f 274//194 329//93 267//317
f 329//93 79//92 267//317
f 274//194 302//318 81//195
f 274//194 264//193 302//318
f 264//193 78//319 302//318
s 15
f 245//191 190//317 86//320
f 245//191 182//97 190//317
f 182//97 82//92 190//317
s 16
f 169//188 162//141 89//140
f 169//188 208//106 162//141
f 208//106 91//105 162//141
f 169//188 192//321 93//189
f 169//188 156//187 192//321
f 156//187 90//322 192//321
s 4
f 272//182 315//323 26//177
f 272//182 273//183 315//323
f 273//183 25//9 315//323
f 272//182 219//324 23//179
f 272//182 244//181 219//324
f 244//181 22//325 219//324
s 7
f 167//178 176//326 45//177
f 167//178 168//180 176//326
f 168//180 44//47 176//326
f 167//178 354//324 43//179
f 167//178 367//173 354//324
f 367//173 42//325 354//324
s 5
f 191//176 213//174 32//297
f 191//176 174//175 213//174
f 174//175 29//172 213//174
f 213//174 253//327 32//297
f 213//174 214//173 253//327
f 214//173 31//325 253//327
s 8
f 242//170 271//328 49//126
f 242//170 227//171 271//328
f 227//171 47//329 271//328
f 242//170 243//303 46//52
f 242//170 322//127 243//303
f 322//127 50//304 243//303
s 10
f 240//167 241//330 54//166
f 240//167 366//169 241//330
f 366//169 111//287 241//330
f 240//167 270//308 112//168
f 240//167 228//137 270//308
f 228//137 55//192 270//308
s 12
f 300//165 359//331 66//120
f 300//165 301//145 359//331
f 301//145 65//143 359//331
f 300//165 260//332 63//163
f 300//165 269//164 260//332
f 269//164 62//71 260//332
s 13
f 298//162 152//333 74//160
f 298//162 299//145 152//333
f 299//145 73//334 152//333
f 298//162 263//335 70//163
f 298//162 268//161 263//335
f 268//161 69//80 263//335
s 15
f 189//138 212//139 85//157
f 189//138 183//159 212//139
f 183//159 83//336 212//139
f 189//138 190//317 82//92
f 189//138 265//158 190//317
f 265//158 86//320 190//317
s 17
f 166//154 188//281 110//151
f 166//154 158//156 188//281
f 158//156 98//253 188//281
f 166//154 338//337 97//155
f 166//154 337//153 338//337
f 337//153 95//338 338//337
f 337//153 294//339 95//338
f 337//153 297//152 294//339
f 297//152 94//280 294//339
s 19
f 163//148 165//340 105//146
f 163//148 187//150 165//340
f 187//150 106//341 165//340
f 163//148 211//149 107//149
f 163//148 164//147 211//149
f 164//147 108//149 211//149
s 16
f 365//145 161//142 92//163
f 365//145 363//144 161//142
f 363//144 89//140 161//142
f 161//142 209//332 92//163
f 161//142 162//141 209//332
f 162//141 91//105 209//332
s 14
f 239//139 330//342 80//336
f 239//139 238//138 330//342
f 238//138 79//92 330//342
f 238//138 267//317 79//92
f 238//138 232//137 267//317
f 232//137 77//192 267//317
s 18
f 236//135 336//283 103//284
f 236//135 237//134 336//283
f 237//134 104//248 336//283
s 11
f 296//132 335//311 59//313
f 296//132 287//131 335//311
f 287//131 57//312 335//311
s 9
f 186//129 266//289 101//290
f 186//129 185//128 266//289
f 185//128 102//241 266//289
f 185//128 210//306 102//241
f 185//128 180//127 210//306
f 180//127 53//307 210//306
s 6
f 364//125 159//122 39//343
f 364//125 353//124 159//122
f 353//124 35//120 159//122
f 159//122 222//344 39//343
f 159//122 160//121 222//344
f 160//121 38//39 222//344
s 17
f 157//115 158//156 97//155
f 157//115 184//114 158//156
f 184//114 98//253 158//156
f 293//112 294//339 94//280
f 293//112 334//111 294//339
f 334//111 95//338 294//339
s 16
f 233//107 209//332 91//105
f 233//107 235//109 209//332
f 235//109 92//163 209//332
f 233//107 234//345 84//108
f 233//107 208//106 234//345
f 208//106 93//189 234//345
f 333//104 363//144 88//143
f 333//104 331//103 363//144
f 331//103 89//140 363//144
f 331//103 156//187 89//140
f 331//103 332//102 156//187
f 332//102 90//322 156//187
s 15
f 153//98 183//159 82//92
f 153//98 155//100 183//159
f 155//100 83//336 183//159
f 153//98 154//346 81//99
f 153//98 182//97 154//346
f 182//97 84//190 154//346
s 14
f 360//94 330//342 79//92
f 360//94 362//96 330//342
f 362//96 80//336 330//342
f 360//94 361//347 72//95
f 360//94 329//93 361//347
f 329//93 81//195 361//347
f 207//91 232//137 76//136
f 207//91 205//90 232//137
f 205//90 77//192 232//137
f 205//90 264//193 77//192
f 205//90 206//89 264//193
f 206//89 78//319 264//193
s 13
f 292//79 152//333 73//334
f 292//79 290//87 152//333
f 290//87 74//160 152//333
f 290//87 181//199 74//160
f 290//87 291//86 181//199
f 291//86 75//196 181//199
f 261//82 263//335 69//80
f 261//82 289//84 263//335
f 289//84 70//163 263//335
f 261//82 328//291 71//83
f 261//82 262//81 328//291
f 262//81 72//316 328//291
s 12
f 358//79 359//331 65//143
f 358//79 356//78 359//331
f 356//78 66//120 359//331
f 356//78 151//204 66//120
f 356//78 357//77 151//204
f 357//77 67//315 151//204
f 229//73 260//332 62//71
f 229//73 231//75 260//332
f 231//75 63//163 260//332
f 229//73 230//348 61//74
f 229//73 259//72 230//348
f 259//72 64//206 230//348
s 11
f 258//67 287//131 56//130
f 258//67 256//70 287//131
f 256//70 57//312 287//131
f 256//70 327//209 57//312
f 256//70 257//69 327//209
f 257//69 58//207 327//209
s 10
f 326//67 228//137 54//166
f 326//67 325//66 228//137
f 325//66 55//192 228//137
f 325//66 255//210 55//192
f 325//66 248//65 255//210
f 248//65 1//310 255//210
s 9
f 150//60 180//127 52//126
f 150//60 149//63 180//127
f 149//63 53//307 180//127
f 149//63 324//217 53//307
f 149//63 323//62 324//217
f 323//62 3//214 324//217
s 8
f 179//60 322//127 49//126
f 179//60 177//59 322//127
f 177//59 50//304 322//127
f 177//59 355//221 50//304
f 177//59 178//58 355//221
f 178//58 51//218 355//221
f 319//54 227//171 46//52
f 319//54 321//56 227//171
f 321//56 47//329 227//171
f 319//54 320//349 41//55
f 319//54 226//53 320//349
f 226//53 48//305 320//349
s 7
f 223//49 176//326 44//47
f 223//49 225//51 176//326
f 225//51 45//177 176//326
f 223//49 224//350 30//50
f 223//49 286//48 224//350
f 286//48 40//224 224//350
f 318//22 354//324 42//325
f 318//22 316//46 354//324
f 316//46 43//179 354//324
f 316//46 204//222 43//179
f 316//46 317//45 204//222
f 317//45 37//302 204//222
s 6
f 220//41 222//344 38//39
f 220//41 254//43 222//344
f 254//43 39//343 222//344
f 220//41 285//351 40//42
f 220//41 221//40 285//351
f 221//40 41//227 285//351
f 352//38 353//124 34//123
f 352//38 147//37 353//124
f 147//37 35//120 353//124
f 147//37 148//225 35//120
f 147//37 175//36 148//225
f 175//36 36//300 148//225
s 5
f 284//22 253//327 31//325
f 284//22 281//34 253//327
f 281//34 32//297 253//327
f 281//34 283//231 32//297
f 281//34 282//33 283//231
f 282//33 33//228 283//231
f 144//29 174//175 28//27
f 144//29 146//31 174//175
f 146//31 29//172 174//175
f 144//29 145//352 27//30
f 144//29 173//28 145//352
f 173//28 30//298 145//352
s 4
f 349//24 315//323 25//9
f 349//24 351//26 315//323
f 351//26 26//177 315//323
f 349//24 350//353 18//25
f 349//24 314//23 350//353
f 314//23 27//234 350//353
f 203//22 219//324 22//325
f 203//22 201//21 219//324
f 201//21 23//179 219//324
f 201//21 252//232 23//179
f 201//21 202//20 252//232
f 202//20 24//296 252//232
s 3
f 249//16 280//117 16//14
f 249//16 251//18 280//117
f 251//18 17//354 280//117
f 249//16 250//355 15//17
f 249//16 279//15 250//355
f 279//15 18//294 250//355
s 2
f 196//11 200//185 13//9
f 196//11 199//13 200//185
f 199//13 14//186 200//185
f 196//11 198//356 7//12
f 196//11 197//10 198//356
f 197//10 15//239 198//356
s 22
f 376//357 375//358 374//359
s 23
f 381//360 385//361 384//362
f 381//360 384//362 383//363
f 385//361 392//364 391//365
f 385//361 391//365 390//366
s 24
f 417//367 420//368 419//369
f 419//369 418//370 417//367
s 25
f 424//371 375//372 426//373
f 424//371 426//373 425//374
s 23
f 433//375 440//376 439//377
f 433//375 439//377 438//378
f 446//379 444//380 445//381
f 447//382 442//383 448//384
s 24
f 415//385 417//367 418//370
s 25
f 425//374 426//373 451//386
s 23
f 456//149 455//387 453//388
f 386//389 383//363 384//362
f 445//381 444//380 442//383
f 442//383 447//382 445//381
f 443//390 437//391 440//376
f 440//376 441//392 443//390
f 439//377 440//376 437//391
f 435//393 433//375 438//378
f 435//393 438//378 436//394
s 26
f 429//395 431//396 432//397
f 429//395 432//397 434//398
s 27
f 427//399 428//400 375//401
f 375//401 430//392 427//399
s 25
f 422//402 424//403 425//374
f 422//402 425//374 451//386
s 24
f 421//390 420//368 416//404
f 416//404 423//392 421//390
f 419//369 374//405 415//385
f 419//369 415//385 418//370
f 416//404 420//368 417//367
s 28
f 458//406 376//407 414//408
f 458//406 414//408 457//409
s 29
f 450//410 410//411 412//412
f 412//412 413//413 450//410
s 30
f 409//414 406//415 402//416
f 402//416 411//413 409//414
s 31
f 408//417 398//418 400//419
f 400//419 407//420 408//417
s 32
f 405//421 403//422 401//423
f 405//421 401//423 404//424
s 33
f 397//417 396//425 394//426
f 394//426 399//420 397//417
s 34
f 395//427 389//428 392//429
f 392//429 393//420 395//427
s 23
f 387//430 385//361 390//366
f 387//430 390//366 388//431
f 379//432 381//360 383//363
f 379//432 383//363 386//389
f 384//362 385//361 387//430
s 22
f 412//433 375//358 376//357
s 35
f 460//434 459//434 455//434
f 456//434 460//434 455//434
f 461//434 459//434 460//434
f 460//434 462//434 461//434
f 463//435 466//435 465//435
s 36
f 465//435 464//435 463//435
s 35
f 461//435 462//435 466//435
f 466//435 463//435 461//435
f 468//436 467//436 464//436
f 465//436 468//436 464//436
f 468//436 454//436 452//436
f 468//436 452//436 467//436
s 24
f 422//437 419//369 420//368
s 37
f 410//438 458//439 419//440
s 38
f 419//441 422//442 410//443
s 39
f 410//444 422//445 428//446
s 23
f 464//447 429//448 435//449
f 444//380 464//447 435//449
f 435//449 437//450 444//380
f 464//447 444//380 446//379
f 452//451 379//452 387//453
f 396//454 467//455 389//456
f 396//454 398//457 467//455
f 385//361 455//387 459//458
f 385//361 459//458 394//459
f 394//459 392//364 385//361
f 459//458 461//460 431//461
f 459//458 431//461 375//462
f 459//458 375//462 412//463
f 412//463 402//464 459//458
f 431//461 461//460 440//376
f 440//376 433//375 431//461
f 461//460 442//383 440//376
f 463//465 464//447 446//379
f 463//465 446//379 469//466
f 442//383 461//460 448//384
f 453//388 455//387 382//467
f 453//388 382//467 470//468
f 379//452 452//451 378//469
f 378//469 452//451 453//388
f 453//388 470//468 378//469
f 394//459 459//458 400//470
f 459//458 403//471 400//470
f 448//384 461//460 463//465
f 463//465 469//466 448//384
f 459//458 402//464 403//471
f 455//387 385//361 381//360
f 455//387 381//360 382//467
f 389//456 467//455 452//451
f 452//451 387//453 389//456
f 467//455 398//457 405//472
f 406//473 467//455 405//472
f 429//448 464//447 467//455
f 467//455 406//473 429//448
s 40
f 429//474 410//475 428//476
s 23
f 429//448 406//473 410//477
f 377//478 378//469 470//468
f 470//468 449//479 377//478
f 470//468 382//467 380//480
f 470//468 380//480 449//479
s 22
f 374//359 375//358 424//481
s 41
f 374//482 424//483 416//484
s 35
f 460//485 479//486 480//487
f 480//487 481//488 460//485
f 482//487 483//487 468//489
f 454//490 484//491 485//487
f 485//487 486//487 454//490
f 487//492 465//493 488//494
f 487//492 488//494 489//492
f 490//487 454//490 491//487
f 493//487 494//495 468//489
f 492//488 493//487 468//489
f 480//487 479//486 496//496
f 495//487 480//487 496//496
f 456//497 498//259 497//259
f 479//486 460//485 462//498
f 462//498 499//494 479//486
f 500//259 498//259 456//497
f 456//497 496//496 500//259
f 502//492 499//494 462//498
f 462//498 501//492 502//492
f 466//492 487//492 501//492
f 466//492 501//492 462//498
f 466//492 465//493 487//492
f 495//487 496//496 456//497
f 503//487 495//487 456//497
f 504//487 460//485 505//487
f 468//489 454//490 490//487
f 490//487 482//487 468//489
f 484//491 494//495 493//487
f 493//487 485//487 484//491
f 468//489 494//495 488//494
f 465//493 468//489 488//494
f 497//259 506//259 484//491
f 454//490 497//259 484//491
f 483//487 492//488 468//489
f 481//488 505//487 460//485
f 507//487 503//487 456//497
s 42
f 491//499 472//500 471//501
f 471//501 490//502 491//499
f 474//503 473//504 486//505
f 474//503 486//505 485//506
s 43
f 507//507 475//508 478//509
f 478//509 503//499 507//507
f 476//510 475//508 507//507
f 476//510 507//507 508//511
f 503//499 478//509 477//501
f 477//501 495//502 503//499
s 42
f 472//500 491//499 486//505
f 473//504 472//500 486//505
s 35
f 486//487 491//487 454//490
f 508//487 507//487 456//497
f 456//497 460//485 504//487
f 504//487 508//487 456//497
f 502//512 513//513 512//514
f 502//512 512//514 501//515
f 512//514 517//516 501//515
s 44
f 522//517 521//518 520//519
s 35
f 525//520 487//521 518//522
f 487//521 525//520 526//523
f 526//523 489//512 487//521
f 497//524 506//524 530//525
f 529//526 500//524 498//524
f 516//527 517//516 512//514
f 516//527 512//514 513//513
f 499//434 479//434 527//434
f 527//434 514//528 499//434
f 529//434 528//434 496//434
f 529//434 496//434 500//434
f 479//434 496//434 528//434
f 528//434 527//434 479//434
f 502//434 499//434 514//528
s 45
f 518//529 373//530 510//531
s 35
f 525//520 518//522 510//532
f 510//532 526//523 525//520
f 484//436 531//436 530//436
f 530//436 506//436 484//436
f 532//436 494//436 488//436
f 509//533 532//436 488//436
s 46
f 526//436 510//436 511//534
f 511//534 489//436 526//436
s 35
f 509//533 488//436 489//436
s 46
f 511//534 509//535 489//436
s 35
f 531//436 484//436 494//436
f 532//436 531//436 494//436
s 1
f 348//1 7//240 6//2
s 3
f 280//117 17//354 19//118
f 19//118 20//293 295//119
s 19
f 109//149 106//341 187//150
s 2
f 12//184 13//9 200//185
f 197//10 13//9 12//184
s 1
f 348//1 4//3 9//7
s 19
f 140//259 108//536 211//261
s 47
g Cofre_flgrey.007
usemtl flgrey.007
f 118//487 119//487 120//487
f 118//487 120//487 121//487
f 118//487 121//487 122//487
s 48
f 118//487 122//487 115//487
f 118//487 115//487 116//487
f 116//487 117//487 118//487
s 49
f 128//487 129//487 130//487
f 128//487 130//487 123//487
f 128//487 123//487 124//487
s 50
f 128//487 124//487 125//487
f 128//487 125//487 126//487
f 126//487 127//487 128//487
l 519 520
l 522 523
l 523 524
l 517 524
l 514 515
l 518 519
